# xmcd
# 
# Track frame offsets:
#     150
#     19397
#     33680
#     46975
#     61980
#     73468
#     95878
#     110223
#     123623
#     139142
#     150035
#     164815
#     179263
#     190344
#     206329
#     216006
#     231711
#     237729
#     256660
#     269499
#     282317
#     294203
#     308165
#     320991
# 
# Disc length: 4467
# 
# Revision: 0
# Processed by: cddbd v1.5.2PL0 Copyright (c) Steve Scherf et al.
# Submitted via: fre:ac v1.0.17
# 
DISCID=88117118
DTITLE=BK Turner "Black Ace" - Black Ace
DYEAR=1960
DGENRE=Blues
TTITLE0=I am The Black Ace
TTITLE1=Bad Times Stomp
TTITLE2=Drink on Little Girl
TTITLE3=Santa Fe Blues
TTITLE4=New Triflin Woman
TTITLE5=Farther Along
TTITLE6=Evil Woman
TTITLE7='Fore Day Creep
TTITLE8=Little Augie
TTITLE9=Your Leg's Too Little
TTITLE10=No Good Woman
TTITLE11=Santa Claus Blues
TTITLE12=Golden Slipper
TTITLE13=I've Been In Love With You Baby
TTITLE14=Ace's Guitar Blues
TTITLE15=Beer Drinking woman
TTITLE16=Ace's Guitar Breakdown
TTITLE17=Hitch-hiking Woman
TTITLE18=trifling Woman
TTITLE19=Black Ace
TTITLE20=You Gonna Need My Help someday
TTITLE21=Whiskey And Women
TTITLE22=Christmas Time Blues
TTITLE23=Lowing Heifer
EXTD=
EXTT0=
EXTT1=
EXTT2=
EXTT3=
EXTT4=
EXTT5=
EXTT6=
EXTT7=
EXTT8=
EXTT9=
EXTT10=
EXTT11=
EXTT12=
EXTT13=
EXTT14=
EXTT15=
EXTT16=
EXTT17=
EXTT18=
EXTT19=
EXTT20=
EXTT21=
EXTT22=
EXTT23=
PLAYORDER=
